<svg xmlns="http://www.w3.org/2000/svg" xmlns:xlink="http://www.w3.org/1999/xlink" width="500" zoomAndPan="magnify" viewBox="0 0 375 374.999991" height="500" preserveAspectRatio="xMidYMid meet" version="1.2"><defs/><g id="7542ac9605"><g style="fill:#004aad;fill-opacity:1;"><g transform="translate(42.443155, 303.940911)"><path style="stroke:none" d="M 83.953125 0.296875 C 76.378906 1.691406 72.097656 2.390625 71.109375 2.390625 C 50.390625 2.390625 34.648438 -3.53125 23.890625 -15.375 C 13.140625 -27.226562 7.765625 -44.609375 7.765625 -67.515625 L 7.765625 -191.5 C 7.765625 -213.601562 13.191406 -230.378906 24.046875 -241.828125 C 34.898438 -253.285156 50.585938 -259.015625 71.109375 -259.015625 C 91.617188 -259.015625 107.300781 -253.285156 118.15625 -241.828125 C 129.007812 -230.378906 134.4375 -213.601562 134.4375 -191.5 L 134.4375 -67.515625 C 134.4375 -46.398438 129.65625 -29.671875 120.09375 -17.328125 L 142.203125 -3.28125 L 124.875 27.1875 Z M 71.109375 -44.8125 C 76.085938 -44.8125 79.269531 -47.203125 80.65625 -51.984375 C 82.050781 -56.765625 82.75 -62.9375 82.75 -70.5 L 82.75 -190.609375 C 82.75 -197.179688 81.898438 -202.359375 80.203125 -206.140625 C 78.515625 -209.921875 75.378906 -211.8125 70.796875 -211.8125 C 62.640625 -211.8125 58.5625 -204.84375 58.5625 -190.90625 L 58.5625 -69.609375 C 58.5625 -62.441406 59.351562 -56.515625 60.9375 -51.828125 C 62.53125 -47.148438 65.921875 -44.8125 71.109375 -44.8125 Z M 71.109375 -44.8125 "/></g></g><g style="fill:#004aad;fill-opacity:1;"><g transform="translate(190.012296, 303.940911)"><path style="stroke:none" d="M 11.359375 -256.625 L 90.21875 -256.625 C 102.769531 -256.625 112.476562 -253.785156 119.34375 -248.109375 C 126.21875 -242.429688 130.847656 -234.460938 133.234375 -224.203125 C 135.628906 -213.953125 136.828125 -200.859375 136.828125 -184.921875 C 136.828125 -170.390625 134.929688 -159.039062 131.140625 -150.875 C 127.359375 -142.707031 120.789062 -137.03125 111.4375 -133.84375 C 119.195312 -132.25 124.820312 -128.363281 128.3125 -122.1875 C 131.800781 -116.007812 133.546875 -107.644531 133.546875 -97.09375 L 132.9375 0 L 82.75 0 L 82.75 -100.375 C 82.75 -107.550781 81.351562 -112.132812 78.5625 -114.125 C 75.78125 -116.113281 70.703125 -117.109375 63.328125 -117.109375 L 63.328125 0 L 11.359375 0 Z M 75.875 -161.625 C 83.050781 -161.625 86.640625 -169.390625 86.640625 -184.921875 C 86.640625 -191.691406 86.335938 -196.769531 85.734375 -200.15625 C 85.140625 -203.539062 84.046875 -205.878906 82.453125 -207.171875 C 80.859375 -208.472656 78.566406 -209.125 75.578125 -209.125 L 63.640625 -209.125 L 63.640625 -161.625 Z M 75.875 -161.625 "/></g></g></g></svg>