<svg xmlns="http://www.w3.org/2000/svg" xmlns:xlink="http://www.w3.org/1999/xlink" width="500" zoomAndPan="magnify" viewBox="0 0 375 187.499995" height="250" preserveAspectRatio="xMidYMid meet" version="1.2"><defs><clipPath id="4b70b59436"><path d="M 105 126 L 144 126 L 144 165.449219 L 105 165.449219 Z M 105 126 "/></clipPath><clipPath id="ad717b3515"><path d="M 105 21.832031 L 144 21.832031 L 144 61 L 105 61 Z M 105 21.832031 "/></clipPath><clipPath id="c9fc1fa2ef"><path d="M 0.5 21.832031 L 39 21.832031 L 39 61 L 0.5 61 Z M 0.5 21.832031 "/></clipPath><clipPath id="00ec03637a"><path d="M 0.5 126 L 39 126 L 39 165.449219 L 0.5 165.449219 Z M 0.5 126 "/></clipPath></defs><g id="0ce8aa7903"><g clip-rule="nonzero" clip-path="url(#4b70b59436)"><path style=" stroke:none;fill-rule:nonzero;fill:#ffffff;fill-opacity:1;" d="M 141.136719 165.164062 L 108.207031 165.164062 C 106.71875 165.164062 105.511719 163.960938 105.511719 162.472656 C 105.511719 160.984375 106.71875 159.777344 108.207031 159.777344 L 138.441406 159.777344 L 138.441406 129.542969 C 138.441406 128.054688 139.648438 126.847656 141.136719 126.847656 C 142.625 126.847656 143.828125 128.054688 143.828125 129.542969 L 143.828125 162.472656 C 143.828125 163.960938 142.625 165.164062 141.136719 165.164062 Z M 141.136719 165.164062 "/></g><g clip-rule="nonzero" clip-path="url(#ad717b3515)"><path style=" stroke:none;fill-rule:nonzero;fill:#ffffff;fill-opacity:1;" d="M 141.136719 60.148438 C 139.648438 60.148438 138.441406 58.945312 138.441406 57.457031 L 138.441406 27.21875 L 108.207031 27.21875 C 106.71875 27.21875 105.511719 26.015625 105.511719 24.527344 C 105.511719 23.039062 106.71875 21.832031 108.207031 21.832031 L 141.136719 21.832031 C 142.625 21.832031 143.828125 23.039062 143.828125 24.527344 L 143.828125 57.457031 C 143.828125 58.945312 142.625 60.148438 141.136719 60.148438 Z M 141.136719 60.148438 "/></g><g clip-rule="nonzero" clip-path="url(#c9fc1fa2ef)"><path style=" stroke:none;fill-rule:nonzero;fill:#ffffff;fill-opacity:1;" d="M 3.191406 60.148438 C 1.703125 60.148438 0.5 58.945312 0.5 57.457031 L 0.5 24.527344 C 0.5 23.039062 1.703125 21.832031 3.191406 21.832031 L 36.121094 21.832031 C 37.609375 21.832031 38.816406 23.039062 38.816406 24.527344 C 38.816406 26.015625 37.609375 27.21875 36.121094 27.21875 L 5.886719 27.21875 L 5.886719 57.457031 C 5.886719 58.945312 4.679688 60.148438 3.191406 60.148438 Z M 3.191406 60.148438 "/></g><g clip-rule="nonzero" clip-path="url(#00ec03637a)"><path style=" stroke:none;fill-rule:nonzero;fill:#ffffff;fill-opacity:1;" d="M 36.121094 165.164062 L 3.191406 165.164062 C 1.703125 165.164062 0.5 163.960938 0.5 162.472656 L 0.5 129.542969 C 0.5 128.054688 1.703125 126.847656 3.191406 126.847656 C 4.679688 126.847656 5.886719 128.054688 5.886719 129.542969 L 5.886719 159.777344 L 36.121094 159.777344 C 37.609375 159.777344 38.816406 160.984375 38.816406 162.472656 C 38.816406 163.960938 37.609375 165.164062 36.121094 165.164062 Z M 36.121094 165.164062 "/></g><g style="fill:#ffffff;fill-opacity:1;"><g transform="translate(174.476346, 127.343758)"><path style="stroke:none" d="M 3.296875 0 L 3.296875 -74.578125 L 33.171875 -74.578125 L 33.171875 -60.171875 L 18.5 -60.171875 L 18.5 -45.671875 L 32.5625 -45.671875 L 32.5625 -31.609375 L 18.5 -31.609375 L 18.5 -14.5 L 34.125 -14.5 L 34.125 0 Z M 3.296875 0 "/></g></g><g style="fill:#ffffff;fill-opacity:1;"><g transform="translate(210.24729, 127.343758)"><path style="stroke:none" d="M 20.484375 0.6875 C 7.929688 0.6875 1.65625 -5.675781 1.65625 -18.40625 L 1.734375 -23.4375 L 16.9375 -23.4375 L 17.015625 -15.96875 C 17.015625 -14.46875 17.300781 -13.328125 17.875 -12.546875 C 18.457031 -11.765625 19.414062 -11.375 20.75 -11.375 C 22.78125 -11.375 23.796875 -13.023438 23.796875 -16.328125 C 23.796875 -18.753906 23.316406 -20.660156 22.359375 -22.046875 C 21.398438 -23.441406 19.878906 -24.921875 17.796875 -26.484375 L 9.71875 -32.734375 C 6.945312 -34.878906 4.953125 -37.09375 3.734375 -39.375 C 2.515625 -41.664062 1.90625 -44.894531 1.90625 -49.0625 C 1.90625 -52.300781 2.757812 -55.0625 4.46875 -57.34375 C 6.175781 -59.632812 8.445312 -61.359375 11.28125 -62.515625 C 14.125 -63.671875 17.28125 -64.25 20.75 -64.25 C 33.082031 -64.25 39.25 -58.113281 39.25 -45.84375 L 39.25 -44.625 L 23.53125 -44.625 L 23.53125 -47.0625 C 23.53125 -48.5625 23.28125 -49.847656 22.78125 -50.921875 C 22.289062 -51.992188 21.46875 -52.53125 20.3125 -52.53125 C 19.269531 -52.53125 18.472656 -52.222656 17.921875 -51.609375 C 17.378906 -51.003906 17.109375 -50.179688 17.109375 -49.140625 C 17.109375 -46.828125 18.003906 -45.035156 19.796875 -43.765625 L 29.171875 -36.90625 C 32.523438 -34.414062 35.097656 -31.707031 36.890625 -28.78125 C 38.691406 -25.863281 39.59375 -22.175781 39.59375 -17.71875 C 39.59375 -11.8125 37.910156 -7.265625 34.546875 -4.078125 C 31.191406 -0.898438 26.503906 0.6875 20.484375 0.6875 Z M 20.484375 0.6875 "/></g></g><g style="fill:#ffffff;fill-opacity:1;"><g transform="translate(251.48805, 127.343758)"><path style="stroke:none" d="M 3.03125 -63.5625 L 18.234375 -63.5625 L 18.234375 -55.484375 C 18.867188 -58.085938 19.96875 -60.195312 21.53125 -61.8125 C 23.09375 -63.4375 25.175781 -64.25 27.78125 -64.25 C 32.0625 -64.25 35.226562 -62.929688 37.28125 -60.296875 C 39.34375 -57.660156 40.375 -53.914062 40.375 -49.0625 L 40.375 0 L 25.4375 0 L 25.4375 -47.5 C 25.4375 -48.882812 25.160156 -50.066406 24.609375 -51.046875 C 24.066406 -52.035156 23.210938 -52.53125 22.046875 -52.53125 C 20.484375 -52.53125 19.457031 -51.820312 18.96875 -50.40625 C 18.476562 -48.988281 18.234375 -47.09375 18.234375 -44.71875 L 18.234375 0 L 3.03125 0 Z M 3.03125 -63.5625 "/></g></g><g style="fill:#ffffff;fill-opacity:1;"><g transform="translate(294.812571, 127.343758)"><path style="stroke:none" d="M 14.59375 0.6875 C 9.664062 0.6875 6.289062 -0.941406 4.46875 -4.203125 C 2.644531 -7.472656 1.734375 -12.148438 1.734375 -18.234375 C 1.734375 -23.210938 2.382812 -27.03125 3.6875 -29.6875 C 4.988281 -32.351562 6.796875 -34.304688 9.109375 -35.546875 C 11.429688 -36.796875 14.960938 -38.175781 19.703125 -39.6875 L 23.875 -41.0625 L 23.875 -47.578125 C 23.875 -49.253906 23.539062 -50.539062 22.875 -51.4375 C 22.207031 -52.34375 21.410156 -52.796875 20.484375 -52.796875 C 19.679688 -52.796875 18.972656 -52.414062 18.359375 -51.65625 C 17.753906 -50.90625 17.453125 -49.894531 17.453125 -48.625 L 17.453125 -44.796875 L 2.6875 -44.796875 L 2.6875 -46.890625 C 2.6875 -53.140625 4.148438 -57.59375 7.078125 -60.25 C 10.003906 -62.914062 14.765625 -64.25 21.359375 -64.25 C 26.628906 -64.25 30.910156 -62.875 34.203125 -60.125 C 37.503906 -57.375 39.15625 -53.484375 39.15625 -48.453125 L 39.15625 0 L 24.046875 0 L 24.046875 -7.546875 C 23.296875 -4.941406 22.09375 -2.914062 20.4375 -1.46875 C 18.789062 -0.03125 16.84375 0.6875 14.59375 0.6875 Z M 20.578125 -11.109375 C 21.734375 -11.109375 22.554688 -11.585938 23.046875 -12.546875 C 23.546875 -13.503906 23.796875 -14.675781 23.796875 -16.0625 L 23.796875 -33.78125 C 21.535156 -32.90625 19.867188 -31.800781 18.796875 -30.46875 C 17.722656 -29.144531 17.1875 -27.296875 17.1875 -24.921875 L 17.1875 -16.765625 C 17.1875 -12.992188 18.316406 -11.109375 20.578125 -11.109375 Z M 20.578125 -11.109375 "/></g></g><g style="fill:#ffffff;fill-opacity:1;"><g transform="translate(336.747925, 127.343758)"><path style="stroke:none" d="M 3.296875 0 L 3.296875 -74.578125 L 33.171875 -74.578125 L 33.171875 -60.078125 L 18.328125 -60.078125 L 18.328125 -48.1875 L 32.390625 -48.1875 L 32.390625 -33.859375 L 18.328125 -33.859375 L 18.328125 0 Z M 3.296875 0 "/></g></g><g style="fill:#004aad;fill-opacity:1;"><g transform="translate(30.005412, 127.343758)"><path style="stroke:none" d="M 24.40625 0.09375 C 22.195312 0.488281 20.953125 0.6875 20.671875 0.6875 C 14.648438 0.6875 10.070312 -1.03125 6.9375 -4.46875 C 3.8125 -7.914062 2.25 -12.96875 2.25 -19.625 L 2.25 -55.65625 C 2.25 -62.082031 3.828125 -66.957031 6.984375 -70.28125 C 10.140625 -73.613281 14.703125 -75.28125 20.671875 -75.28125 C 26.628906 -75.28125 31.1875 -73.613281 34.34375 -70.28125 C 37.5 -66.957031 39.078125 -62.082031 39.078125 -55.65625 L 39.078125 -19.625 C 39.078125 -13.488281 37.6875 -8.625 34.90625 -5.03125 L 41.328125 -0.953125 L 36.296875 7.90625 Z M 20.671875 -13.03125 C 22.109375 -13.03125 23.03125 -13.722656 23.4375 -15.109375 C 23.84375 -16.492188 24.046875 -18.285156 24.046875 -20.484375 L 24.046875 -55.390625 C 24.046875 -57.304688 23.800781 -58.8125 23.3125 -59.90625 C 22.820312 -61.007812 21.910156 -61.5625 20.578125 -61.5625 C 18.203125 -61.5625 17.015625 -59.535156 17.015625 -55.484375 L 17.015625 -20.234375 C 17.015625 -18.148438 17.242188 -16.425781 17.703125 -15.0625 C 18.171875 -13.707031 19.160156 -13.03125 20.671875 -13.03125 Z M 20.671875 -13.03125 "/></g></g><g style="fill:#004aad;fill-opacity:1;"><g transform="translate(72.895803, 127.343758)"><path style="stroke:none" d="M 3.296875 -74.578125 L 26.21875 -74.578125 C 29.863281 -74.578125 32.6875 -73.753906 34.6875 -72.109375 C 36.6875 -70.460938 38.03125 -68.144531 38.71875 -65.15625 C 39.414062 -62.175781 39.765625 -58.375 39.765625 -53.75 C 39.765625 -49.519531 39.210938 -46.21875 38.109375 -43.84375 C 37.015625 -41.46875 35.109375 -39.820312 32.390625 -38.90625 C 34.640625 -38.4375 36.269531 -37.304688 37.28125 -35.515625 C 38.300781 -33.722656 38.8125 -31.289062 38.8125 -28.21875 L 38.640625 0 L 24.046875 0 L 24.046875 -29.171875 C 24.046875 -31.253906 23.640625 -32.582031 22.828125 -33.15625 C 22.023438 -33.738281 20.550781 -34.03125 18.40625 -34.03125 L 18.40625 0 L 3.296875 0 Z M 22.046875 -46.96875 C 24.140625 -46.96875 25.1875 -49.226562 25.1875 -53.75 C 25.1875 -55.71875 25.097656 -57.191406 24.921875 -58.171875 C 24.742188 -59.160156 24.421875 -59.84375 23.953125 -60.21875 C 23.492188 -60.59375 22.832031 -60.78125 21.96875 -60.78125 L 18.5 -60.78125 L 18.5 -46.96875 Z M 22.046875 -46.96875 "/></g></g></g></svg>